C:\Users\nml-p\Documents\Projects\PredSim\OCP\IK_Guess_Full_cycling.mot
version=3
nRows=14
nColumns=29
inDegrees=no
endheader
time	pelvis_tilt	pelvis_list	pelvis_rotation	pelvis_tx	pelvis_ty	pelvis_tz	hip_flexion_r	hip_adduction_r	hip_rotation_r	knee_angle_r	knee_angle_r_beta	ankle_angle_r	subtalar_angle_r	mtp_angle_r	hip_flexion_l	hip_adduction_l	hip_rotation_l	knee_angle_l	knee_angle_l_beta	ankle_angle_l	subtalar_angle_l	mtp_angle_l	crank_rotation	crank_tx	crank_ty	crank_tz	pedal_rotation_r	pedal_rotation_l
0	-0.1693747814548717	0.01303152065890384	0.009661556432949577	-0.1082584973205858	0.8000419865636111	0.01133900752430529	0.8978863602501812	-0.1407840454954812	0.008448182102953171	-1.473273186311529	1.473273380012063	-0.2167124940130627	-0.07929990686344511	-3.166490842134974e-07	1.206017787524717	-0.120633784770734	0.03810371898269238	-1.334315375414628	1.334315244638151	0.04184631539066699	0.008715383968700328	-5.913988847999307e-07	-57.94610252233379	-0.001994532161790608	0.2359961335177364	-0.00100192032042059	0	0
0.007524339096600673	-0.1723649944045203	0.008976481277846345	0.004973819348189358	-0.1081051524064207	0.7993925531373817	0.01128964708821069	0.9214433965645235	-0.1359811624546294	0.01262604898793872	-1.511520268972806	1.511520338112048	-0.2155665560146917	-0.07868831163113109	-1.271006284261808e-07	1.18376940825817	-0.1258054414368056	0.0352280934918556	-1.293603832125926	1.293603620311721	0.03525032464009195	0.008198589363638709	-4.530613671993123e-07	-58.00893437540559	-0.001994617159732871	0.2359959449896823	-0.001001699976606571	0	0
0.01504867819320135	-0.1758350175284492	0.004963253872760178	0.0003476466296479565	-0.1079036125284861	0.7987379327161231	0.01122788687531267	0.9463562300460895	-0.1314560190663789	0.01647635722474746	-1.549454174970527	1.549454089009153	-0.2155480494358967	-0.07800381656939284	3.314200292965666e-08	1.161089363748186	-0.1310280679046599	0.03190201631422107	-1.252314611031789	1.252314327575491	0.02744891329814447	0.007621975919085617	-3.281913894427956e-07	-58.07176622847738	-0.001994731386364886	0.2359957690559324	-0.001001457364064479	0	0
0.02257301728980202	-0.1795046685262215	0.001047423350359292	-0.004132665084741383	-0.1076496884821718	0.7981305745981431	0.01115440553439804	0.9723485920305368	-0.1272900991506347	0.01998764555031173	-1.586848424551073	1.586848154869737	-0.2167550556130946	-0.07730709934874555	1.204639372459815e-07	1.13760436770619	-0.1360986161115707	0.02820028103969884	-1.210431376482324	1.210431054246788	0.01833999737449683	0.00700256284117829	-2.233467483600391e-07	-58.13459808154916	-0.001994859348903302	0.2359956086897422	-0.001001241149357891	0	0
0.03009735638640269	-0.1830519516671223	-0.002720142379876001	-0.008403455431538824	-0.1073521761266633	0.7976093682236478	0.01107141581392717	0.9989619975758394	-0.1235625054946763	0.0231631268778526	-1.623491194361135	1.623490755938246	-0.2190827455200042	-0.07664906053361127	1.309599975611272e-07	1.113159195588248	-0.1408674525112754	0.02421745210102934	-1.168183869622091	1.16818353766356	0.007949729048469122	0.006352730314067747	-1.462515086756942e-07	-58.19742993462097	-0.00199500323630378	0.2359954630531438	-0.001001079605584656	0	0
0.03762169548300336	-0.1862834958455185	-0.006285556337954204	-0.01242699655848228	-0.107020750628542	0.7971969286772741	0.01098486024308802	1.025879238572037	-0.1203243627278551	0.02601559198957323	-1.659129408840027	1.659128833936342	-0.2223769776084985	-0.07606633190470562	8.726111993199832e-08	1.087764613791309	-0.1452246014196251	0.02003335031174209	-1.125863965632749	1.125863659314365	-0.003758496168537371	0.0056858932890782	-1.003276046959085e-07	-58.26026178769278	-0.001995169032045814	0.2359953215705773	-0.001000959167862113	0	0
0.04514603457960404	-0.1890586433058103	-0.00960059677226778	-0.01618295086126163	-0.1066681732111121	0.7969009969425125	0.01090048891492038	1.052820589307781	-0.1176083481802988	0.0285807848701955	-1.693534202861001	1.693533542390898	-0.2264110486969166	-0.07557407087183551	1.170616449414539e-08	1.061559080943324	-0.1490944452631892	0.01572053112456384	-1.083849892960761	1.083849649426749	-0.01678368917436148	0.005007485002950618	-7.61918411542759e-08	-58.32309364076457	-0.001995349632348911	0.2359951846010944	-0.001000885889727067	0	0
0.05267037367620471	-0.191285022990782	-0.01259941188450481	-0.01965322330527789	-0.106309223421604	0.7967190197882714	0.0108266325013713	1.079558869535232	-0.115470689832647	0.03088671466326051	-1.726421500260096	1.726420818820983	-0.2309251012882658	-0.07517010616558463	-8.054651527933978e-08	1.034802987098972	-0.1524241046874346	0.01131012765477275	-1.042656637546963	1.042656480926812	-0.03114163269796821	0.004306403278077449	-8.304781816091565e-08	-58.38592549383636	-0.001995543801716244	0.2359950549957643	-0.001000868675207812	0	0
0.06019471277280539	-0.1930095185775103	-0.01523390015981172	-0.02283335042032241	-0.1059609303901873	0.7966283029152176	0.01077369782565024	1.105979163528702	-0.1139293652051304	0.03296975494960561	-1.757558336079304	1.75755768519765	-0.2355032230710345	-0.07483271589543321	-1.483274465222986e-07	1.007944665331307	-0.1552216200411516	0.006811931640747294	-1.002829177081596	1.002829124411264	-0.04675873731806258	0.00357739577060707	-1.16571820017607e-07	-58.44875734690815	-0.001995751087954485	0.2359949271722891	-0.001000866040130335	0	0
0.06771905186940605	-0.1943578744619822	-0.01752796098167452	-0.02573523376723159	-0.10563430027533	0.7965971517112332	0.01074502452600199	1.132106224213912	-0.1129196363974421	0.03488953784635515	-1.787033843568297	1.787033262950371	-0.2397666760072451	-0.07452221536019117	-1.880427875567259e-07	0.9813397072962686	-0.1575572638502072	0.002265286394763158	-0.9645970955871851	0.9645971506346955	-0.06344799003675046	0.002815050059113695	-1.563495123504537e-07	-58.51158919997995	-0.001995967901264381	0.2359948040702665	-0.001000870335092296	0	0
0.07524339096600673	-0.1954453737625253	-0.01957919599201673	-0.02836083822010123	-0.1053356037827067	0.7965969405726139	0.01073858099762267	1.158052754043735	-0.1123723687013195	0.03661890695874067	-1.814998324365539	1.81499784527869	-0.2434410458445393	-0.07420074937726159	-1.965088977275949e-07	0.9551998225167455	-0.1595406365518221	-0.002278701089767503	-0.9280479277203603	0.9280480597715943	-0.08104321016216143	0.00201698391470751	-1.990278761742344e-07	-58.57442105305176	-0.001996201778050152	0.2359946895814294	-0.001000879925594996	0	0
0.0827677300626074	-0.1963877970236501	-0.02142362191528846	-0.03068737182588732	-0.1050730346453624	0.7965987954133826	0.01075411304808709	1.183906091280068	-0.112266386868271	0.03815059051606037	-1.841494523119502	1.841494158344075	-0.2462384329215344	-0.07383235606696245	-1.672116741565401e-07	0.9297972549414129	-0.1612153075693516	-0.006779084489793236	-0.8933821680457366	0.89338235395472	-0.0994242384074875	0.001184809609653537	-2.41646753444082e-07	-58.63725290612355	-0.00199644066126108	0.2359945884737464	-0.001000867640837429	0	0
0.09029206915920808	-0.1973414481648673	-0.02313761649105949	-0.03263455124612211	-0.1048570416479654	0.7965688333827831	0.01079127078957243	1.209854363729932	-0.1126017157073757	0.03941634717456319	-1.866474875434543	1.866474636440305	-0.2477347538760294	-0.07336773939347513	-1.101916054313378e-07	0.9054810916889824	-0.1626277160057778	-0.01114287977024623	-0.8609475300889518	0.8609477475431009	-0.1184936464936437	0.0003212612812163647	-2.683953065370107e-07	-58.70008475919533	-0.00199667995761659	0.2359945092785841	-0.001000832097146216	0	0
0.09781640825580874	-0.1984031058417679	-0.02483430870351916	-0.03417411586212418	-0.1046855244523711	0.7964898479913385	0.01084237018389288	1.236001819084779	-0.1133111534570681	0.04036624318307124	-1.890186189110041	1.890186085763811	-0.2478238499585007	-0.07278376982521055	-4.805875029494251e-08	0.882293842386666	-0.1638635464710424	-0.01527797672055049	-0.8306131100602883	0.830613324190021	-0.1380290245556859	-0.0005626254220728652	-2.658016489265388e-07	-58.76291661226713	-0.00199691364747401	0.2359944549724815	-0.001000785887022568	0	0
